<svg width="560" height="48" viewBox="0 0 560 48" fill="none" xmlns="http://www.w3.org/2000/svg">
<g clip-path="url(#clip0_101:59)">
<path d="M5 24.0968C5 37.3271 15.6738 48.0009 28.9041 48.0009C42.1345 48.0009 52.8722 37.3271 52.8722 24.0968C52.8722 10.8664 42.1345 0.0648193 28.9041 0.0648193C15.6738 0.0648193 5 10.8664 5 24.0968ZM40.3449 24.0329C40.3449 30.2965 35.2317 35.4736 28.9041 35.4736C22.6405 35.4736 17.5273 30.2965 17.5273 24.0329C17.5273 17.7053 22.6405 12.5921 28.9041 12.5921C35.2317 12.5921 40.3449 17.7053 40.3449 24.0329Z" fill="#333333"/>
<path d="M97.69 10.6738H105.488C109.323 10.6738 112.39 13.7417 112.39 17.5766C112.39 21.4114 109.323 24.4154 105.488 24.4154H97.69V10.6738ZM85.0988 48H97.69V35.2809H105.552C115.075 35.2809 122.936 27.3555 122.936 17.7044C122.936 7.98934 115.011 0.0639038 105.296 0.0639038H85.0988V48Z" fill="#333333"/>
<path d="M157.052 48H186.836V37.7097H169.643V28.8895H184.855V18.2796H169.643V10.482H186.836V0.0639038H157.052V48Z" fill="#333333"/>
<path d="M263.162 48V0.0639038H250.571V22.6897L227.881 0.0639038H222.768V48H235.359V25.3102L257.985 48H263.162Z" fill="#333333"/>
<path d="M310.888 0.0639038H298.233V29.0812C298.233 39.6271 306.606 48 317.152 48C327.57 48 336.07 39.6271 336.07 29.0812V0.0639038H323.415V28.8895C323.415 32.3409 320.603 35.1531 317.152 35.1531C313.7 35.1531 310.888 32.3409 310.888 28.8895V0.0639038Z" fill="#333333"/>
<path d="M370.145 12.5273H382.609V48H395.2V12.5273H407.919V0H370.145V12.5273Z" fill="#333333"/>
<path d="M448.286 48L451.162 41.7363H470.784L473.724 48H486.315L463.753 0.0639038H458.065L435.695 48H448.286ZM461.005 20.5805L465.862 31.1265H456.083L461.005 20.5805Z" fill="#333333"/>
<path d="M530.024 0.0639038H517.369V29.0812C517.369 39.6271 525.742 48 536.288 48C546.706 48 555.206 39.6271 555.206 29.0812V0.0639038H542.551V28.8895C542.551 32.3409 539.739 35.1531 536.288 35.1531C532.836 35.1531 530.024 32.3409 530.024 28.8895V0.0639038Z" fill="#333333"/>
</g>
<defs>
<clipPath id="clip0_101:59">
<rect width="560" height="48" fill="white"/>
</clipPath>
</defs>
</svg>
